<svg width="72" height="21" viewBox="0 0 72 21" fill="none" xmlns="http://www.w3.org/2000/svg">
<path d="M14.2607 2.41687C13.6204 2.41687 13.213 2.77058 12.951 3.38957L7.82883 16.1526L2.67752 3.38957C2.44469 2.7411 1.97903 2.41687 1.36786 2.41687C0.611172 2.41687 0 3.03586 0 3.77276C0 4.00857 0.058206 4.27385 0.203723 4.56861L6.49007 19.6013C6.752 20.2498 7.18855 20.574 7.79973 20.574C8.44 20.574 8.87655 20.2498 9.13849 19.6013L15.4248 4.56861C15.5703 4.27385 15.6286 4.00857 15.6286 3.77276C15.6286 3.03586 15.0174 2.41687 14.2607 2.41687Z" fill="white"/>
<path d="M18.5378 20.574C19.3236 20.574 19.9348 19.955 19.9348 19.1297V8.37096C19.9348 7.54563 19.3527 6.92664 18.5669 6.92664C17.752 6.92664 17.1699 7.54563 17.1699 8.37096V19.1591C17.1699 19.955 17.752 20.574 18.5378 20.574Z" fill="white"/>
<path d="M27.6477 20.574C30.2379 20.574 32.4207 19.2181 32.4207 16.5653C32.4207 14.6493 31.2275 13.6177 28.8992 12.6155L27.6768 12.1144C26.4836 11.6428 25.9597 11.2891 25.9597 10.5816C25.9597 9.72685 26.6873 9.34366 27.735 9.34366C28.6955 9.34366 29.5977 9.72685 30.2961 10.2574C30.6454 10.5227 30.8782 10.6701 31.1692 10.6701C31.8095 10.6701 32.3334 10.1395 32.3334 9.46156C32.3334 9.10785 32.1879 8.78362 31.9259 8.51833C30.9364 7.54563 29.4812 6.92664 27.8224 6.92664C25.2613 6.92664 23.2822 8.28253 23.2822 10.6996C23.2822 12.6744 24.5628 13.6177 26.6582 14.5019L27.9679 15.062C29.0156 15.4746 29.7723 15.8284 29.7723 16.6832C29.7723 17.6559 28.8119 18.157 27.7059 18.157C26.4836 18.157 25.4941 17.5674 24.6792 16.8011C24.3882 16.5358 24.0971 16.4179 23.8061 16.4179C23.1367 16.4179 22.5837 16.9779 22.5837 17.6559C22.5837 18.039 22.7293 18.3338 22.9912 18.5696C24.0098 19.7487 25.6396 20.574 27.6477 20.574Z" fill="white"/>
<path d="M49.213 18.422C47.8451 18.422 46.9429 17.744 46.9429 16.6829C46.9429 15.6513 47.7287 15.0912 49.2421 15.0912H52.5599V15.327C52.5599 17.0661 51.0756 18.422 49.213 18.422ZM50.0279 6.92639C48.1362 6.92639 46.419 7.60434 45.3131 8.7539C44.9348 9.13708 44.7602 9.4908 44.7602 9.90346C44.7602 10.5225 45.3131 11.0825 45.9825 11.0825C46.3026 11.0825 46.5937 10.9351 46.9429 10.6698C47.7578 9.84451 48.7182 9.43184 49.795 9.43184C51.5704 9.43184 52.5599 10.434 52.5599 12.2321V13.0869H48.8928C45.9825 13.0869 44.1199 14.5312 44.1199 16.8008C44.1199 19.0705 45.9243 20.5737 48.6309 20.5737C50.2898 20.5737 51.6577 20.0137 52.589 19.0115V19.1589C52.589 19.9547 53.1711 20.5737 53.9568 20.5737C54.7426 20.5737 55.3247 19.9842 55.3247 19.1589V12.3794C55.3538 8.93075 53.3748 6.92639 50.0279 6.92639Z" fill="white"/>
<path d="M41.8195 18.0387C41.5867 18.0387 41.3538 18.0682 41.0337 18.0682C39.2584 18.0682 38.5017 17.3903 38.5017 15.7986V9.63812H40.5098C41.2083 9.63812 41.7322 9.13703 41.7322 8.42961C41.7322 7.75167 41.2083 7.19162 40.5098 7.19162H38.5017V4.92198C38.5017 4.09665 37.8905 3.47766 37.1047 3.47766C36.3189 3.47766 35.7078 4.12613 35.7078 4.92198C35.7078 9.31389 35.7078 9.37284 35.7078 16.0344C35.7078 18.982 37.3958 20.5737 40.4807 20.5737C41.2083 20.5737 41.7613 20.4852 42.2269 20.3084C42.7508 20.1315 43.0418 19.7189 43.0418 19.1294C43.0127 18.4809 42.5471 18.0387 41.8195 18.0387Z" fill="white"/>
<path d="M70.7777 18.0388C70.5449 18.0388 70.3121 18.0682 69.992 18.0682C68.2166 18.0682 67.46 17.3903 67.46 15.7986V9.63812H69.4681C70.1666 9.63812 70.6904 9.13703 70.6904 8.42961C70.6904 7.75167 70.1666 7.19162 69.4681 7.19162H67.46V4.92198C67.46 4.09665 66.8488 3.47766 66.063 3.47766C65.2772 3.47766 64.666 4.12613 64.666 4.92198C64.666 9.31389 64.666 9.37284 64.666 16.0344C64.666 18.982 66.354 20.5737 69.439 20.5737C70.1666 20.5737 70.7195 20.4852 71.1852 20.3084C71.7091 20.1315 72.0001 19.7189 72.0001 19.1294C72.0001 18.4809 71.5053 18.0388 70.7777 18.0388Z" fill="white"/>
<path d="M60.0085 20.5739C60.7943 20.5739 61.3764 19.9549 61.3764 19.1296V1.44407C61.3764 0.61875 60.7943 -0.000244141 60.0085 -0.000244141C59.1936 -0.000244141 58.6116 0.61875 58.6116 1.44407V19.1296C58.6407 19.9549 59.2227 20.5739 60.0085 20.5739Z" fill="white"/>
</svg>
