<svg width="14" height="14" viewBox="0 0 14 14" fill="none" xmlns="http://www.w3.org/2000/svg">
<path fill-rule="evenodd" clip-rule="evenodd" d="M6.23768 4.55868C6.58308 4.09321 6.70693 3.60264 6.31629 3.16962C5.43966 1.94297 4.8501 1.18441 4.4803 0.819106C3.77726 0.124617 2.62074 0.218558 2.01186 0.818513C1.68482 1.14075 1.57411 1.25141 1.23831 1.59249C-0.632123 3.46393 0.508564 7.42008 3.54093 10.4554C6.5726 13.4901 10.5284 14.6314 12.4027 12.756C12.7126 12.4573 12.975 12.1948 13.1819 11.9761C13.7786 11.3454 13.8691 10.2399 13.1779 9.5217C12.8236 9.15349 12.1002 8.59239 10.822 7.67804C10.4305 7.32797 9.96627 7.40384 9.54069 7.68304C9.33598 7.81734 9.18701 7.9532 8.9057 8.23479L8.39487 8.7459C8.32759 8.81322 7.41399 8.35569 6.52714 7.46797C5.63981 6.57977 5.1826 5.66612 5.24956 5.59916L5.76075 5.0877C5.85 4.99836 5.89266 4.95511 5.94739 4.89759C6.06139 4.77778 6.15578 4.66904 6.23768 4.55868ZM9.33716 9.68871L9.84809 9.1775C10.0029 9.02253 10.1032 8.92724 10.1849 8.86154C11.3046 9.66568 11.9531 10.1713 12.218 10.4465C12.3771 10.6118 12.3524 10.9133 12.2141 11.0594C12.0228 11.2617 11.7742 11.5104 11.4692 11.8046C10.2571 13.0172 7.06393 12.0959 4.48342 9.51282C1.9021 6.92896 0.981255 3.73528 2.18413 2.53174C2.51857 2.19207 2.62453 2.08616 2.9469 1.76852C3.06777 1.64942 3.39701 1.62268 3.54405 1.76792C3.82876 2.04917 4.35689 2.72541 5.13381 3.80763C5.09359 3.85757 5.04335 3.914 4.98222 3.97824C4.93735 4.0254 4.89997 4.06329 4.81825 4.14509L4.30757 4.65605C3.43881 5.52475 4.17868 7.00322 5.58465 8.41058C6.98965 9.81696 8.46868 10.5577 9.33716 9.68871Z" fill="white"/>
</svg>
