<svg width="35" height="35" viewBox="0 0 35 35" fill="none" xmlns="http://www.w3.org/2000/svg">
<path d="M21.606 3.81282C22.3079 3.81282 22.8769 3.24379 22.8769 2.54188C22.8769 1.83996 22.3079 1.27094 21.606 1.27094H16.4456C13.3334 1.27092 10.8938 1.27092 8.95841 1.48061C6.9833 1.6946 5.38296 2.13911 4.01658 3.13185C3.18937 3.73285 2.46192 4.4603 1.86091 5.2875C0.868172 6.6539 0.423664 8.25423 0.209672 10.2293C-1.67416e-05 12.1648 -1.66452e-05 14.6043 3.0064e-07 17.7166V17.8698C-1.66452e-05 20.9821 -1.67416e-05 23.4216 0.209672 25.357C0.423664 27.3322 0.868172 28.9324 1.86091 30.2989C2.46192 31.126 3.18937 31.8535 4.01657 32.4544C5.38296 33.4473 6.9833 33.8918 8.95841 34.1058C10.8938 34.3154 13.3334 34.3154 16.4455 34.3154H16.599C19.7111 34.3154 22.1506 34.3154 24.086 34.1058C26.0612 33.8918 27.6614 33.4473 29.028 32.4544C29.8551 31.8535 30.5826 31.126 31.1835 30.2989C32.1763 28.9324 32.6208 27.3322 32.8349 25.357C33.0445 23.4216 33.0445 20.982 33.0445 17.8699V12.7094C33.0445 12.0075 32.4754 11.4385 31.7735 11.4385C31.0716 11.4385 30.5026 12.0075 30.5026 12.7094V17.7932C30.5026 20.9987 30.5009 23.3006 30.3077 25.0833C30.1171 26.8421 29.7526 27.9439 29.1271 28.8048C28.6829 29.4162 28.1453 29.9539 27.5338 30.398C26.673 31.0235 25.5712 31.388 23.8124 31.5787C22.0297 31.7718 19.7277 31.7735 16.5222 31.7735C13.3168 31.7735 11.0148 31.7718 9.23219 31.5787C7.47336 31.388 6.37152 31.0235 5.51065 30.398C4.89924 29.9539 4.36157 29.4162 3.91735 28.8048C3.29189 27.9439 2.92732 26.8421 2.73676 25.0833C2.54363 23.3006 2.54188 20.9987 2.54188 17.7932C2.54188 14.5877 2.54363 12.2857 2.73676 10.5031C2.92732 8.74429 3.29189 7.64245 3.91735 6.78159C4.36157 6.17018 4.89924 5.6325 5.51065 5.18828C6.37152 4.56283 7.47336 4.19825 9.2322 4.0077C11.0148 3.81456 13.3168 3.81282 16.5222 3.81282H21.606Z" fill="#707680"/>
<path d="M6.90825 22.0751C6.59912 22.7053 6.8594 23.4669 7.48958 23.7759C8.11976 24.085 8.88123 23.8247 9.19035 23.1945L11.665 18.1497C12.4321 16.586 14.6865 16.6624 15.3459 18.2745C16.8357 21.9161 21.9287 22.0886 23.6615 18.5561L26.1363 13.5112C26.4454 12.881 26.1851 12.1196 25.5549 11.8105C24.9247 11.5013 24.1633 11.7616 23.8541 12.3918L21.3794 17.4367C20.6125 19.0004 18.358 18.924 17.6986 17.3119C16.2087 13.6702 11.1157 13.4977 9.38291 17.0303L6.90825 22.0751Z" fill="#707680"/>
<path fill-rule="evenodd" clip-rule="evenodd" d="M25.8425 4.23647C25.8425 6.57621 27.7393 8.47294 30.079 8.47294C32.4187 8.47294 34.3155 6.57621 34.3155 4.23647C34.3155 1.89674 32.4187 0 30.079 0C27.7393 0 25.8425 1.89674 25.8425 4.23647ZM28.3844 4.23647C28.3844 5.17236 29.1431 5.93106 30.079 5.93106C31.0149 5.93106 31.7736 5.17236 31.7736 4.23647C31.7736 3.30058 31.0149 2.54188 30.079 2.54188C29.1431 2.54188 28.3844 3.30058 28.3844 4.23647Z" fill="#707680"/>
</svg>
