<svg width="13" height="13" viewBox="0 0 13 13" fill="none" xmlns="http://www.w3.org/2000/svg">
<path d="M1.44499 0C0.646465 0 0.00012919 0.647499 0 1.44421C0 2.2417 0.646336 2.88907 1.44512 2.88907C2.2417 2.88907 2.88894 2.2417 2.88894 1.44421C2.88894 0.647369 2.24157 0 1.44499 0Z" fill="white"/>
<path d="M2.69041 3.98499H0.19873V12.0017H2.69041V3.98499Z" fill="white"/>
<path d="M9.03359 3.78564C7.82154 3.78564 7.0088 4.4502 6.67614 5.08038H6.64281V3.98498H4.25306H4.25293V12.0016H6.74241V8.03573C6.74241 6.99019 6.9415 5.97748 8.23778 5.97748C9.51547 5.97748 9.53252 7.17326 9.53252 8.10278V12.0015H12.0224V7.60436C12.0224 5.44599 11.5567 3.78564 9.03359 3.78564Z" fill="white"/>
</svg>
