<svg width="150" height="47" viewBox="0 0 150 47" fill="none" xmlns="http://www.w3.org/2000/svg">
<path fill-rule="evenodd" clip-rule="evenodd" d="M44.5639 25.3874C43.4334 25.3874 42.4914 24.4301 42.4914 23.2813C42.4914 22.1326 43.4334 21.1753 44.5639 21.1753C45.6944 21.1753 46.6364 22.1326 46.6364 23.2813C46.5987 24.4301 45.6944 25.3874 44.5639 25.3874Z" fill="#FFD940"/>
<path fill-rule="evenodd" clip-rule="evenodd" d="M49.7643 20.0649C48.6339 20.0649 47.6918 19.1076 47.6918 17.9588C47.6918 16.8101 48.6339 15.8528 49.7643 15.8528C50.8948 15.8528 51.8369 16.8101 51.8369 17.9588C51.8369 19.1459 50.8948 20.0649 49.7643 20.0649Z" fill="#FFD940"/>
<path fill-rule="evenodd" clip-rule="evenodd" d="M39.326 15.891C38.1955 15.891 37.2535 16.8483 37.2535 17.997C37.2535 19.1458 38.1955 20.1031 39.326 20.1031C40.4565 20.1031 41.3985 19.1458 41.3985 17.997C41.3985 16.8483 40.4565 15.891 39.326 15.891Z" fill="#FFD940"/>
<path fill-rule="evenodd" clip-rule="evenodd" d="M39.326 26.4978C38.1955 26.4978 37.2535 27.4551 37.2535 28.6038C37.2535 29.7526 38.1955 30.7099 39.326 30.7099C40.4565 30.7099 41.3985 29.7526 41.3985 28.6038C41.3985 27.4551 40.4565 26.4978 39.326 26.4978Z" fill="#FFD940"/>
<path fill-rule="evenodd" clip-rule="evenodd" d="M34.126 25.3874C32.9956 25.3874 32.0535 24.4301 32.0535 23.2813C32.0535 22.1326 32.9956 21.1753 34.126 21.1753C35.2565 21.1753 36.1986 22.1326 36.1986 23.2813C36.1986 24.4301 35.2565 25.3874 34.126 25.3874Z" fill="#FFD940"/>
<path fill-rule="evenodd" clip-rule="evenodd" d="M28.9261 15.891C27.7956 15.891 26.8536 16.8483 26.8536 17.997C26.8536 19.1458 27.7956 20.1031 28.9261 20.1031C30.0566 20.1031 30.9986 19.1458 30.9986 17.997C30.9609 16.8483 30.0566 15.891 28.9261 15.891Z" fill="#FFD940"/>
<path fill-rule="evenodd" clip-rule="evenodd" d="M28.9261 26.4978C27.7956 26.4978 26.8536 27.4551 26.8536 28.6038C26.8536 29.7526 27.7956 30.7099 28.9261 30.7099C30.0566 30.7099 30.9986 29.7526 30.9986 28.6038C30.9609 27.4551 30.0566 26.4978 28.9261 26.4978Z" fill="#FFD940"/>
<path fill-rule="evenodd" clip-rule="evenodd" d="M8.05036 25.3874C9.18082 25.3874 10.1229 24.4301 10.1229 23.2813C10.1229 22.1326 9.18082 21.1753 8.05036 21.1753C6.9199 21.1753 5.97784 22.1326 5.97784 23.2813C5.97784 24.4301 6.9199 25.3874 8.05036 25.3874Z" fill="#FFD940"/>
<path fill-rule="evenodd" clip-rule="evenodd" d="M2.84986 20.0648C3.98032 20.0648 4.92237 19.1075 4.92237 17.9588C4.92237 16.81 3.98032 15.8527 2.84986 15.8527C1.7194 15.891 0.777344 16.8483 0.777344 17.997C0.777344 19.1458 1.7194 20.0648 2.84986 20.0648Z" fill="#FFD940"/>
<path fill-rule="evenodd" clip-rule="evenodd" d="M13.2503 15.891C14.3808 15.891 15.3228 16.8483 15.3228 17.997C15.3228 19.1458 14.3808 20.1031 13.2503 20.1031C12.1198 20.1031 11.1778 19.1458 11.1778 17.997C11.2155 16.8483 12.1198 15.891 13.2503 15.891Z" fill="#FFD940"/>
<path fill-rule="evenodd" clip-rule="evenodd" d="M13.2503 26.4978C14.3808 26.4978 15.3228 27.4551 15.3228 28.6038C15.3228 29.7526 14.3808 30.7099 13.2503 30.7099C12.1198 30.7099 11.1778 29.7526 11.1778 28.6038C11.2155 27.4551 12.1198 26.4978 13.2503 26.4978Z" fill="#FFD940"/>
<path fill-rule="evenodd" clip-rule="evenodd" d="M18.4882 25.3874C19.6187 25.3874 20.5607 24.4301 20.5607 23.2813C20.5607 22.1326 19.6187 21.1753 18.4882 21.1753C17.3578 21.1753 16.4157 22.1326 16.4157 23.2813C16.4157 24.4301 17.3578 25.3874 18.4882 25.3874Z" fill="#FFD940"/>
<path fill-rule="evenodd" clip-rule="evenodd" d="M23.6882 15.891C24.8186 15.891 25.7607 16.8483 25.7607 17.997C25.7607 19.1458 24.8186 20.1031 23.6882 20.1031C22.5577 20.1031 21.6157 19.1458 21.6157 17.997C21.6533 16.8483 22.5577 15.891 23.6882 15.891Z" fill="#FFD940"/>
<path fill-rule="evenodd" clip-rule="evenodd" d="M23.6882 26.4978C24.8186 26.4978 25.7607 27.4551 25.7607 28.6038C25.7607 29.7526 24.8186 30.7099 23.6882 30.7099C22.5577 30.7099 21.6157 29.7526 21.6157 28.6038C21.6533 27.4551 22.5577 26.4978 23.6882 26.4978Z" fill="#FFD940"/>
<path fill-rule="evenodd" clip-rule="evenodd" d="M16.4157 2.10603C16.4157 3.25478 17.3578 4.21207 18.4882 4.21207C19.6187 4.21207 20.5607 3.25478 20.5607 2.10603C20.5231 0.957288 19.6187 0 18.4882 0C17.3578 0 16.4157 0.957288 16.4157 2.10603Z" fill="#FFD940"/>
<path fill-rule="evenodd" clip-rule="evenodd" d="M25.7607 7.39021C25.7607 8.53896 24.8186 9.49625 23.6882 9.49625C22.5577 9.49625 21.6157 8.53896 21.6157 7.39021C21.6157 6.24147 22.5577 5.28418 23.6882 5.28418C24.8186 5.28418 25.7607 6.24147 25.7607 7.39021Z" fill="#FFD940"/>
<path fill-rule="evenodd" clip-rule="evenodd" d="M16.4157 12.6745C16.4157 13.8233 17.3578 14.7806 18.4882 14.7806C19.6187 14.7806 20.5607 13.8233 20.5607 12.6745C20.5607 11.5258 19.6187 10.5685 18.4882 10.5685C17.3578 10.6068 16.4157 11.5258 16.4157 12.6745Z" fill="#FFD940"/>
<path fill-rule="evenodd" clip-rule="evenodd" d="M32.0535 12.6745C32.0535 13.8233 32.9956 14.7806 34.126 14.7806C35.2565 14.7806 36.1986 13.8233 36.1986 12.6745C36.1986 11.5258 35.2565 10.5685 34.126 10.5685C32.9956 10.6068 32.0535 11.5258 32.0535 12.6745Z" fill="#FFD940"/>
<path fill-rule="evenodd" clip-rule="evenodd" d="M34.126 31.782C32.9956 31.782 32.0535 32.7393 32.0535 33.888C32.0535 35.0368 32.9956 35.9941 34.126 35.9941C35.2565 35.9941 36.1986 35.0368 36.1986 33.888C36.1986 32.7393 35.2565 31.782 34.126 31.782Z" fill="#FFD940"/>
<path fill-rule="evenodd" clip-rule="evenodd" d="M28.9261 41.2782C27.7956 41.2782 26.8536 40.3209 26.8536 39.1722C26.8536 38.0235 27.7956 37.0662 28.9261 37.0662C30.0566 37.0662 30.9986 38.0235 30.9986 39.1722C30.9609 40.3209 30.0566 41.2782 28.9261 41.2782Z" fill="#FFD940"/>
<path fill-rule="evenodd" clip-rule="evenodd" d="M18.4882 31.782C19.6187 31.782 20.5607 32.7393 20.5607 33.888C20.5607 35.0368 19.6187 35.9941 18.4882 35.9941C17.3578 35.9941 16.4157 35.0368 16.4157 33.888C16.4157 32.7393 17.3578 31.782 18.4882 31.782Z" fill="#FFD940"/>
<path fill-rule="evenodd" clip-rule="evenodd" d="M23.6882 41.2782C24.8186 41.2782 25.7607 40.3209 25.7607 39.1722C25.7607 38.0235 24.8186 37.0662 23.6882 37.0662C22.5577 37.0662 21.6157 38.0235 21.6157 39.1722C21.6533 40.3209 22.5577 41.2782 23.6882 41.2782Z" fill="#FFD940"/>
<path fill-rule="evenodd" clip-rule="evenodd" d="M16.4157 44.4947C16.4157 43.346 17.3578 42.3887 18.4882 42.3887C19.6187 42.3887 20.5607 43.346 20.5607 44.4947C20.5607 45.6435 19.6187 46.6008 18.4882 46.6008C17.3578 46.5625 16.4157 45.6435 16.4157 44.4947Z" fill="#FFD940"/>
<path fill-rule="evenodd" clip-rule="evenodd" d="M34.126 42.3887C32.9956 42.3887 32.0535 43.346 32.0535 44.4947C32.0535 45.6435 32.9956 46.6008 34.126 46.6008C35.2565 46.6008 36.1986 45.6435 36.1986 44.4947C36.1986 43.346 35.2565 42.3887 34.126 42.3887Z" fill="#FFD940"/>
<path fill-rule="evenodd" clip-rule="evenodd" d="M36.1986 2.10603C36.1986 3.25478 35.2565 4.21207 34.126 4.21207C32.9956 4.21207 32.0535 3.25478 32.0535 2.10603C32.0535 0.957288 32.9956 0 34.126 0C35.2565 0 36.1986 0.957288 36.1986 2.10603Z" fill="#FFD940"/>
<path fill-rule="evenodd" clip-rule="evenodd" d="M49.7643 30.6715C48.6339 30.6715 47.6918 29.7143 47.6918 28.5655C47.6918 27.4168 48.6339 26.4595 49.7643 26.4595C50.8948 26.4595 51.8369 27.4168 51.8369 28.5655C51.8369 29.7525 50.8948 30.6715 49.7643 30.6715Z" fill="#153769"/>
<path fill-rule="evenodd" clip-rule="evenodd" d="M44.5639 20.0649C43.4334 20.0649 42.4914 19.1076 42.4914 17.9588C42.4914 16.8101 43.4334 15.8528 44.5639 15.8528C45.6944 15.8528 46.6364 16.8101 46.6364 17.9588C46.5987 19.1459 45.6944 20.0649 44.5639 20.0649Z" fill="#153769"/>
<path fill-rule="evenodd" clip-rule="evenodd" d="M39.326 21.2135C38.1955 21.2135 37.2535 22.1708 37.2535 23.3195C37.2535 24.4683 38.1955 25.4256 39.326 25.4256C40.4565 25.4256 41.3985 24.4683 41.3985 23.3195C41.3985 22.1325 40.4565 21.2135 39.326 21.2135Z" fill="#153769"/>
<path fill-rule="evenodd" clip-rule="evenodd" d="M44.5639 30.6715C43.4334 30.6715 42.4914 29.7143 42.4914 28.5655C42.4914 27.4168 43.4334 26.4595 44.5639 26.4595C45.6944 26.4595 46.6364 27.4168 46.6364 28.5655C46.5987 29.7525 45.6944 30.6715 44.5639 30.6715Z" fill="#153769"/>
<path fill-rule="evenodd" clip-rule="evenodd" d="M34.126 20.0649C32.9956 20.0649 32.0535 19.1076 32.0535 17.9588C32.0535 16.8101 32.9956 15.8528 34.126 15.8528C35.2565 15.8528 36.1986 16.8101 36.1986 17.9588C36.1986 19.1459 35.2565 20.0649 34.126 20.0649Z" fill="#153769"/>
<path fill-rule="evenodd" clip-rule="evenodd" d="M28.9261 21.2135C27.7956 21.2135 26.8536 22.1708 26.8536 23.3195C26.8536 24.4683 27.7956 25.4256 28.9261 25.4256C30.0566 25.4256 30.9986 24.4683 30.9986 23.3195C30.9609 22.1325 30.0566 21.2135 28.9261 21.2135Z" fill="#153769"/>
<path fill-rule="evenodd" clip-rule="evenodd" d="M2.84986 30.6715C3.98032 30.6715 4.92237 29.7142 4.92237 28.5655C4.92237 27.4167 3.98032 26.4594 2.84986 26.4594C1.7194 26.4594 0.777344 27.4167 0.777344 28.5655C0.777344 29.7525 1.7194 30.6715 2.84986 30.6715Z" fill="#153769"/>
<path fill-rule="evenodd" clip-rule="evenodd" d="M8.05036 20.0649C9.18082 20.0649 10.1229 19.1076 10.1229 17.9588C10.1229 16.8101 9.18082 15.8528 8.05036 15.8528C6.9199 15.8528 5.97784 16.8101 5.97784 17.9588C5.97784 19.1459 6.9199 20.0649 8.05036 20.0649Z" fill="#153769"/>
<path fill-rule="evenodd" clip-rule="evenodd" d="M13.2503 21.2135C14.3808 21.2135 15.3228 22.1708 15.3228 23.3195C15.3228 24.4683 14.3808 25.4256 13.2503 25.4256C12.1198 25.4256 11.1778 24.4683 11.1778 23.3195C11.2155 22.1325 12.1198 21.2135 13.2503 21.2135Z" fill="#153769"/>
<path fill-rule="evenodd" clip-rule="evenodd" d="M8.05036 30.6715C9.18082 30.6715 10.1229 29.7143 10.1229 28.5655C10.1229 27.4168 9.18082 26.4595 8.05036 26.4595C6.9199 26.4595 5.97784 27.4168 5.97784 28.5655C5.97784 29.7525 6.9199 30.6715 8.05036 30.6715Z" fill="#153769"/>
<path fill-rule="evenodd" clip-rule="evenodd" d="M18.4882 20.0649C19.6187 20.0649 20.5607 19.1076 20.5607 17.9588C20.5607 16.8101 19.6187 15.8528 18.4882 15.8528C17.3578 15.8528 16.4157 16.8101 16.4157 17.9588C16.4157 19.1459 17.3578 20.0649 18.4882 20.0649Z" fill="#153769"/>
<path fill-rule="evenodd" clip-rule="evenodd" d="M18.4882 30.6715C19.6187 30.6715 20.5607 29.7143 20.5607 28.5655C20.5607 27.4168 19.6187 26.4595 18.4882 26.4595C17.3578 26.4595 16.4157 27.4168 16.4157 28.5655C16.4157 29.7525 17.3578 30.6715 18.4882 30.6715Z" fill="#153769"/>
<path fill-rule="evenodd" clip-rule="evenodd" d="M26.8536 2.10603C26.8536 3.25478 27.7956 4.21207 28.9261 4.21207C30.0566 4.21207 30.9986 3.25478 30.9986 2.10603C30.9986 0.957288 30.0566 0 28.9261 0C27.7956 0 26.8536 0.957288 26.8536 2.10603Z" fill="#153769"/>
<path fill-rule="evenodd" clip-rule="evenodd" d="M20.5228 7.39021C20.5228 8.53896 19.5807 9.49625 18.4503 9.49625C17.3198 9.49625 16.3777 8.53896 16.3777 7.39021C16.3777 6.24147 17.3198 5.28418 18.4503 5.28418C19.6184 5.28418 20.5228 6.24147 20.5228 7.39021Z" fill="#153769"/>
<path fill-rule="evenodd" clip-rule="evenodd" d="M21.6531 12.6745C21.6531 13.8233 22.5952 14.7806 23.7257 14.7806C24.8561 14.7806 25.7982 13.8233 25.7982 12.6745C25.7982 11.5258 24.8561 10.5685 23.7257 10.5685C22.5575 10.6068 21.6531 11.5258 21.6531 12.6745Z" fill="#153769"/>
<path fill-rule="evenodd" clip-rule="evenodd" d="M26.8536 12.6745C26.8536 13.8233 27.7956 14.7806 28.9261 14.7806C30.0566 14.7806 30.9986 13.8233 30.9986 12.6745C30.9986 11.5258 30.0566 10.5685 28.9261 10.5685C27.7956 10.6068 26.8536 11.5258 26.8536 12.6745Z" fill="#153769"/>
<path fill-rule="evenodd" clip-rule="evenodd" d="M36.1986 7.39021C36.1986 8.53896 35.2565 9.49625 34.126 9.49625C32.9956 9.49625 32.0535 8.53896 32.0535 7.39021C32.0535 6.24147 32.9956 5.28418 34.126 5.28418C35.2565 5.28418 36.1986 6.24147 36.1986 7.39021Z" fill="#153769"/>
<path fill-rule="evenodd" clip-rule="evenodd" d="M34.126 37.1045C32.9956 37.1045 32.0535 38.0618 32.0535 39.2105C32.0535 40.3593 32.9956 41.3166 34.126 41.3166C35.2565 41.3166 36.1986 40.3593 36.1986 39.2105C36.1986 38.0235 35.2565 37.1045 34.126 37.1045Z" fill="#153769"/>
<path fill-rule="evenodd" clip-rule="evenodd" d="M28.9261 35.9941C27.7956 35.9941 26.8536 35.0368 26.8536 33.888C26.8536 32.7393 27.7956 31.782 28.9261 31.782C30.0566 31.782 30.9986 32.7393 30.9986 33.888C30.9609 35.0368 30.0566 35.9941 28.9261 35.9941Z" fill="#153769"/>
<path fill-rule="evenodd" clip-rule="evenodd" d="M18.4882 37.1045C19.6187 37.1045 20.5607 38.0618 20.5607 39.2105C20.5607 40.3593 19.6187 41.3166 18.4882 41.3166C17.3578 41.3166 16.4157 40.3593 16.4157 39.2105C16.4157 38.0235 17.3578 37.1045 18.4882 37.1045Z" fill="#153769"/>
<path fill-rule="evenodd" clip-rule="evenodd" d="M26.8536 44.4947C26.8536 43.346 27.7956 42.3887 28.9261 42.3887C30.0566 42.3887 30.9986 43.346 30.9986 44.4947C30.9986 45.6435 30.0566 46.6008 28.9261 46.6008C27.7956 46.5625 26.8536 45.6435 26.8536 44.4947Z" fill="#153769"/>
<path d="M74.5207 7.08386C73.6917 7.08386 73.1642 7.54336 72.825 8.34748L66.193 24.9277L59.5233 8.34748C59.2218 7.50507 58.6189 7.08386 57.8276 7.08386C56.8478 7.08386 56.0565 7.88798 56.0565 8.84527C56.0565 9.15161 56.1319 9.49623 56.3203 9.87914L64.4596 29.4078C64.7988 30.2502 65.364 30.6714 66.1553 30.6714C66.9843 30.6714 67.5496 30.2502 67.8887 29.4078L76.028 9.87914C76.2164 9.49623 76.2918 9.15161 76.2918 8.84527C76.2918 7.88798 75.5005 7.08386 74.5207 7.08386Z" fill="#153769"/>
<path d="M80.0606 30.6715C81.078 30.6715 81.8694 29.8674 81.8694 28.7952V14.8188C81.8694 13.7466 81.1157 12.9425 80.0983 12.9425C79.0432 12.9425 78.2896 13.7466 78.2896 14.8188V28.8335C78.2896 29.8674 79.0432 30.6715 80.0606 30.6715Z" fill="#153769"/>
<path d="M148.076 36.0323C147.7 36.0323 147.398 36.1472 147.172 36.3769C147.172 36.1855 147.021 36.0323 146.833 36.0323C146.645 36.0323 146.494 36.1855 146.494 36.3769V39.0191C146.494 39.2105 146.645 39.3637 146.833 39.3637C147.021 39.3637 147.172 39.2105 147.172 39.0191V37.4108C147.172 36.9896 147.474 36.6833 147.888 36.6833C148.303 36.6833 148.566 36.9896 148.566 37.4108V39.0191C148.566 39.2105 148.717 39.3637 148.905 39.3637C149.094 39.3637 149.245 39.2105 149.245 39.0191V37.2959C149.282 36.5301 148.792 36.0323 148.076 36.0323ZM144.459 36.6067C144.949 36.6067 145.25 36.913 145.25 37.3725H143.555C143.668 36.913 144.007 36.6067 144.459 36.6067ZM144.497 36.0323C143.592 36.0323 142.876 36.7599 142.876 37.7172C142.876 38.6744 143.592 39.3637 144.572 39.3637C144.949 39.3637 145.326 39.2488 145.627 39.0191C145.74 38.9425 145.778 38.8659 145.778 38.751C145.778 38.5979 145.665 38.483 145.514 38.483C145.439 38.483 145.401 38.5213 145.326 38.5596C145.1 38.7127 144.873 38.7893 144.572 38.7893C144.007 38.7893 143.63 38.483 143.555 37.9469H145.552C145.778 37.9469 145.929 37.7937 145.929 37.564V37.5257C145.929 36.645 145.326 36.0323 144.497 36.0323ZM141.143 36.0323C140.766 36.0323 140.465 36.1472 140.239 36.3769C140.239 36.1855 140.088 36.0323 139.899 36.0323C139.711 36.0323 139.56 36.1855 139.56 36.3769V39.0191C139.56 39.2105 139.711 39.3637 139.899 39.3637C140.088 39.3637 140.239 39.2105 140.239 39.0191V37.4108C140.239 36.9896 140.54 36.6833 140.955 36.6833C141.369 36.6833 141.633 36.9896 141.633 37.4108V39.0191C141.633 39.2105 141.784 39.3637 141.972 39.3637C142.16 39.3637 142.311 39.2105 142.311 39.0191V37.2959C142.311 36.5301 141.859 36.0323 141.143 36.0323ZM137.337 38.8276C136.998 38.8276 136.772 38.6744 136.772 38.4064C136.772 38.1384 136.96 38.0235 137.337 38.0235H138.128V38.1001C138.128 38.483 137.789 38.8276 137.337 38.8276ZM137.525 36.0323C137.073 36.0323 136.659 36.1855 136.395 36.4918C136.32 36.5684 136.244 36.6833 136.244 36.7599C136.244 36.913 136.395 37.0279 136.546 37.0279C136.621 37.0279 136.696 36.9896 136.772 36.913C136.96 36.7216 137.224 36.6067 137.45 36.6067C137.865 36.6067 138.128 36.8364 138.128 37.2959V37.5257H137.224C136.508 37.5257 136.056 37.8703 136.056 38.4447C136.056 38.9808 136.508 39.3637 137.149 39.3637C137.563 39.3637 137.902 39.2105 138.128 38.9808V39.0191C138.128 39.2105 138.279 39.3637 138.468 39.3637C138.656 39.3637 138.807 39.2105 138.807 39.0191V37.3725C138.807 36.5301 138.354 36.0323 137.525 36.0323ZM135.189 39.3637C135.378 39.3637 135.528 39.2105 135.528 39.0191V34.6921C135.528 34.5007 135.378 34.3475 135.189 34.3475C135.001 34.3475 134.85 34.5007 134.85 34.6921V39.0191C134.85 39.2105 135.001 39.3637 135.189 39.3637ZM125.693 36.6067C126.183 36.6067 126.485 36.913 126.485 37.3725H124.789C124.864 36.913 125.203 36.6067 125.693 36.6067ZM125.693 36.0323C124.789 36.0323 124.073 36.7599 124.073 37.7172C124.073 38.6744 124.789 39.3637 125.769 39.3637C126.145 39.3637 126.522 39.2488 126.824 39.0191C126.937 38.9425 126.974 38.8659 126.974 38.751C126.974 38.5979 126.861 38.483 126.711 38.483C126.635 38.483 126.598 38.5213 126.522 38.5596C126.296 38.7127 126.07 38.7893 125.769 38.7893C125.203 38.7893 124.827 38.483 124.751 37.9469H126.748C126.974 37.9469 127.125 37.7937 127.125 37.564V37.5257C127.163 36.645 126.522 36.0323 125.693 36.0323ZM121.887 38.6361C121.322 38.6361 120.945 38.2149 120.945 37.6406C120.945 37.0662 121.36 36.645 121.887 36.645C122.453 36.645 122.829 37.0279 122.829 37.6406C122.829 38.2149 122.453 38.6361 121.887 38.6361ZM123.169 36.0323C122.98 36.0323 122.829 36.1855 122.829 36.3769V36.4918C122.603 36.1855 122.227 36.0323 121.774 36.0323C120.908 36.0323 120.229 36.6833 120.229 37.6406C120.229 38.5596 120.87 39.2488 121.774 39.2488C122.227 39.2488 122.603 39.0956 122.829 38.7893V39.0191C122.829 39.5934 122.49 39.9381 121.887 39.9381C121.548 39.9381 121.247 39.8232 120.945 39.5934C120.87 39.5551 120.832 39.5169 120.757 39.5169C120.569 39.5169 120.455 39.67 120.455 39.8232C120.455 39.8998 120.493 40.0146 120.569 40.0529C120.945 40.3593 121.435 40.5124 121.925 40.5124C122.905 40.5124 123.508 39.9381 123.508 38.9425V36.3769C123.47 36.1855 123.357 36.0323 123.169 36.0323ZM118.345 36.6067C118.835 36.6067 119.137 36.913 119.137 37.3725H117.441C117.554 36.913 117.893 36.6067 118.345 36.6067ZM118.345 36.0323C117.441 36.0323 116.725 36.7599 116.725 37.7172C116.725 38.6744 117.441 39.3637 118.421 39.3637C118.797 39.3637 119.174 39.2488 119.476 39.0191C119.589 38.9425 119.626 38.8659 119.626 38.751C119.626 38.5979 119.513 38.483 119.363 38.483C119.287 38.483 119.25 38.5213 119.174 38.5596C118.948 38.7127 118.722 38.7893 118.421 38.7893C117.855 38.7893 117.479 38.483 117.403 37.9469H119.4C119.626 37.9469 119.777 37.7937 119.777 37.564V37.5257C119.815 36.645 119.212 36.0323 118.345 36.0323ZM115.821 39.3637C116.009 39.3637 116.16 39.2105 116.16 39.0191V34.6921C116.16 34.5007 116.009 34.3475 115.821 34.3475C115.632 34.3475 115.481 34.5007 115.481 34.6921V39.0191C115.481 39.2105 115.632 39.3637 115.821 39.3637ZM114.803 34.9602C114.879 34.9602 114.916 34.9602 114.954 34.9602C115.142 34.9602 115.255 34.8453 115.255 34.6921C115.255 34.539 115.18 34.4624 115.067 34.3858C114.954 34.3475 114.841 34.3092 114.69 34.3092C114.012 34.3092 113.597 34.7304 113.597 35.4197V36.0706H113.371C113.221 36.0706 113.07 36.1855 113.07 36.3769C113.07 36.5301 113.183 36.6833 113.371 36.6833H113.597V39.0191C113.597 39.2105 113.748 39.3637 113.936 39.3637C114.125 39.3637 114.276 39.2105 114.276 39.0191V36.6833H114.765C114.954 36.6833 115.067 36.5684 115.067 36.3769C115.067 36.2238 114.954 36.0706 114.765 36.0706H114.276V35.4962C114.313 35.1516 114.502 34.9602 114.803 34.9602ZM104.478 36.0323C104.101 36.0323 103.8 36.1855 103.574 36.4152V34.6921C103.574 34.5007 103.423 34.3475 103.235 34.3475C103.046 34.3475 102.896 34.5007 102.896 34.6921V39.0191C102.896 39.2105 103.046 39.3637 103.235 39.3637C103.423 39.3637 103.574 39.2105 103.574 39.0191V37.4108C103.574 36.9896 103.875 36.6833 104.29 36.6833C104.704 36.6833 104.968 36.9896 104.968 37.4108V39.0191C104.968 39.2105 105.119 39.3637 105.307 39.3637C105.496 39.3637 105.646 39.2105 105.646 39.0191V37.2959C105.646 36.5301 105.157 36.0323 104.478 36.0323ZM101.012 39.3637C101.577 39.3637 102.029 39.0956 102.293 38.7127C102.33 38.6361 102.368 38.5979 102.368 38.5213C102.368 38.3681 102.217 38.2149 102.067 38.2149C101.991 38.2149 101.916 38.2532 101.841 38.3298C101.652 38.5596 101.388 38.7127 101.049 38.7127C100.484 38.7127 100.069 38.2915 100.069 37.6789C100.069 37.1045 100.484 36.645 101.049 36.645C101.388 36.645 101.652 36.7982 101.841 37.0662C101.916 37.1428 101.991 37.1811 102.067 37.1811C102.217 37.1811 102.368 37.0279 102.368 36.8747C102.368 36.8364 102.368 36.7599 102.293 36.6833C102.067 36.3004 101.577 36.0323 101.012 36.0323C100.069 36.0323 99.3535 36.7599 99.3535 37.6789C99.3535 38.6361 100.069 39.3637 101.012 39.3637ZM97.3187 38.8276C96.9796 38.8276 96.7535 38.6744 96.7535 38.4064C96.7535 38.1384 96.9419 38.0235 97.3187 38.0235H98.11V38.1001C98.11 38.483 97.7709 38.8276 97.3187 38.8276ZM97.5071 36.0323C97.0549 36.0323 96.6404 36.1855 96.3766 36.4918C96.3013 36.5684 96.2259 36.6833 96.2259 36.7599C96.2259 36.913 96.3766 37.0279 96.5274 37.0279C96.6027 37.0279 96.6781 36.9896 96.7535 36.913C96.9419 36.7216 97.2056 36.6067 97.4317 36.6067C97.8462 36.6067 98.11 36.8364 98.11 37.2959V37.5257H97.2433C96.5274 37.5257 96.0752 37.8703 96.0752 38.4447C96.0752 38.9808 96.5274 39.3637 97.168 39.3637C97.5825 39.3637 97.9216 39.2105 98.1477 38.9808V39.0191C98.1477 39.2105 98.2984 39.3637 98.4868 39.3637C98.6752 39.3637 98.826 39.2105 98.826 39.0191V37.3725C98.7883 36.5301 98.2984 36.0323 97.5071 36.0323ZM95.736 34.9602C95.8114 34.9602 95.8491 34.9602 95.8868 34.9602C96.0752 34.9602 96.1882 34.8453 96.1882 34.6921C96.1882 34.539 96.1129 34.4624 95.9998 34.3858C95.8868 34.3475 95.7737 34.3092 95.623 34.3092C94.9447 34.3092 94.5302 34.7304 94.5302 35.4197V36.0706H94.3041C94.1534 36.0706 94.0027 36.1855 94.0027 36.3769C94.0027 36.5301 94.1157 36.6833 94.3041 36.6833H94.5302V39.0191C94.5302 39.2105 94.6809 39.3637 94.8694 39.3637C95.0578 39.3637 95.2085 39.2105 95.2085 39.0191V36.6833H95.6984C95.8868 36.6833 95.9998 36.5684 95.9998 36.3769C95.9998 36.2238 95.8868 36.0706 95.6984 36.0706H95.2085V35.4962C95.2085 35.1516 95.3969 34.9602 95.736 34.9602ZM92.4954 36.0323C92.1186 36.0323 91.8171 36.1472 91.591 36.3769C91.591 36.1855 91.4403 36.0323 91.2519 36.0323C91.0635 36.0323 90.9127 36.1855 90.9127 36.3769V39.0191C90.9127 39.2105 91.0635 39.3637 91.2519 39.3637C91.4403 39.3637 91.591 39.2105 91.591 39.0191V37.4108C91.591 36.9896 91.8925 36.6833 92.307 36.6833C92.7215 36.6833 92.9853 36.9896 92.9853 37.4108V39.0191C92.9853 39.2105 93.136 39.3637 93.3244 39.3637C93.5128 39.3637 93.6635 39.2105 93.6635 39.0191V37.2959C93.6635 36.5301 93.2113 36.0323 92.4954 36.0323ZM89.82 39.3637C90.0084 39.3637 90.1591 39.2105 90.1591 39.0191V36.3769C90.1591 36.1855 90.0084 36.0323 89.82 36.0323C89.6316 36.0323 89.4808 36.1855 89.4808 36.3769V39.0191C89.4808 39.2105 89.5939 39.3637 89.82 39.3637ZM89.82 34.4624C89.5562 34.4624 89.3678 34.6538 89.3678 34.9219C89.3678 35.1516 89.5562 35.3814 89.82 35.3814C90.0461 35.3814 90.2721 35.1899 90.2721 34.9219C90.2721 34.6538 90.0461 34.4624 89.82 34.4624ZM132.024 37.0279V35.6111H132.891C133.343 35.6111 133.644 35.8792 133.644 36.3004C133.644 36.7216 133.38 36.9896 132.891 36.9896H132.024V37.0279ZM131.685 39.3637C131.873 39.3637 132.024 39.2105 132.024 39.0191V37.6406H132.891C133.757 37.6406 134.322 37.1045 134.322 36.3387C134.322 35.5345 133.757 35.0367 132.891 35.0367H131.722C131.534 35.0367 131.383 35.1899 131.383 35.3814V39.0191C131.346 39.2105 131.496 39.3637 131.685 39.3637ZM110.696 37.0279V35.6111H111.563C112.015 35.6111 112.316 35.8792 112.316 36.3004C112.316 36.7216 112.052 36.9896 111.563 36.9896H110.696V37.0279ZM110.357 39.3637C110.545 39.3637 110.696 39.2105 110.696 39.0191V37.6406H111.563C112.429 37.6406 112.994 37.1045 112.994 36.3387C112.994 35.5345 112.429 35.0367 111.563 35.0367H110.394C110.206 35.0367 110.055 35.1899 110.055 35.3814V39.0191C110.018 39.2105 110.168 39.3637 110.357 39.3637ZM86.3909 39.2871H88.6518C88.8402 39.2871 88.9533 39.1339 88.9533 38.9808C88.9533 38.7893 88.8025 38.6744 88.6518 38.6744H86.7677V37.3342H88.0866C88.275 37.3342 88.388 37.2194 88.388 37.0279C88.388 36.8747 88.275 36.7216 88.0866 36.7216H86.7677V35.6111H88.5765C88.7649 35.6111 88.8779 35.4962 88.8779 35.3048C88.8779 35.1133 88.7272 34.9985 88.5765 34.9985H86.3909C86.2025 34.9985 86.0518 35.1516 86.0518 35.3431V38.9808C86.0518 39.1339 86.2025 39.2871 86.3909 39.2871Z" fill="#153769"/>
<path d="M107.832 38.1767C108.096 38.1767 108.322 37.947 108.322 37.6789C108.322 37.4109 108.096 37.1812 107.832 37.1812C107.568 37.1812 107.342 37.4109 107.342 37.6789C107.305 37.9853 107.531 38.1767 107.832 38.1767Z" fill="#153769"/>
<path d="M129.16 38.1767C129.424 38.1767 129.65 37.947 129.65 37.6789C129.65 37.4109 129.424 37.1812 129.16 37.1812C128.896 37.1812 128.67 37.4109 128.67 37.6789C128.67 37.9853 128.896 38.1767 129.16 38.1767Z" fill="#153769"/>
<path d="M91.8551 30.6715C95.2088 30.6715 98.0349 28.9101 98.0349 25.4638C98.0349 22.9749 96.49 21.6347 93.4754 20.3328L91.8928 19.6818C90.3478 19.0692 89.6695 18.6097 89.6695 17.6907C89.6695 16.5802 90.6116 16.0824 91.9681 16.0824C93.2116 16.0824 94.3798 16.5802 95.2841 17.2694C95.7363 17.6141 96.0378 17.8055 96.4146 17.8055C97.2436 17.8055 97.9219 17.1163 97.9219 16.2356C97.9219 15.7761 97.7335 15.3549 97.3943 15.0102C96.1131 13.7466 94.229 12.9425 92.0812 12.9425C88.7651 12.9425 86.2028 14.7039 86.2028 17.8438C86.2028 20.4094 87.8608 21.6347 90.5739 22.7834L92.2696 23.511C93.6261 24.047 94.6059 24.5065 94.6059 25.617C94.6059 26.8806 93.3624 27.5316 91.9304 27.5316C90.3478 27.5316 89.0666 26.7657 88.0115 25.7702C87.6347 25.4255 87.2579 25.2724 86.881 25.2724C86.0144 25.2724 85.2984 25.9999 85.2984 26.8806C85.2984 27.3784 85.4868 27.7613 85.8259 28.0677C87.1448 29.5993 89.255 30.6715 91.8551 30.6715Z" fill="#153769"/>
<path d="M119.777 27.8762C118.006 27.8762 116.838 26.9955 116.838 25.617C116.838 24.2768 117.856 23.5493 119.815 23.5493H124.111V23.8556C124.111 26.1148 122.189 27.8762 119.777 27.8762ZM120.832 12.9425C118.383 12.9425 116.16 13.8232 114.728 15.3166C114.238 15.8144 114.012 16.2739 114.012 16.81C114.012 17.6141 114.728 18.3416 115.595 18.3416C116.009 18.3416 116.386 18.1502 116.838 17.8055C117.893 16.7334 119.137 16.1973 120.531 16.1973C122.83 16.1973 124.111 17.4992 124.111 19.835V20.9454H119.363C115.595 20.9454 113.183 22.8217 113.183 25.7702C113.183 28.7186 115.519 30.6715 119.024 30.6715C121.172 30.6715 122.943 29.9439 124.148 28.642V28.8335C124.148 29.8674 124.902 30.6715 125.92 30.6715C126.937 30.6715 127.691 29.9057 127.691 28.8335V20.0264C127.728 15.5463 125.166 12.9425 120.832 12.9425Z" fill="#153769"/>
<path d="M110.206 27.3784C109.905 27.3784 109.603 27.4167 109.189 27.4167C106.89 27.4167 105.911 26.536 105.911 24.4683V16.4653H108.511C109.415 16.4653 110.093 15.8144 110.093 14.8954C110.093 14.0147 109.415 13.2871 108.511 13.2871H105.911V10.3387C105.911 9.26652 105.119 8.4624 104.102 8.4624C103.084 8.4624 102.293 9.30482 102.293 10.3387C102.293 16.0441 102.293 16.1207 102.293 24.7746C102.293 28.6037 104.479 30.6715 108.473 30.6715C109.415 30.6715 110.131 30.5566 110.734 30.3269C111.412 30.0971 111.789 29.561 111.789 28.7952C111.751 27.9528 111.148 27.3784 110.206 27.3784Z" fill="#153769"/>
<path d="M147.7 27.3784C147.398 27.3784 147.097 27.4167 146.683 27.4167C144.384 27.4167 143.404 26.536 143.404 24.4683V16.4653H146.004C146.909 16.4653 147.587 15.8144 147.587 14.8954C147.587 14.0147 146.909 13.2871 146.004 13.2871H143.404V10.3387C143.404 9.26652 142.613 8.4624 141.595 8.4624C140.578 8.4624 139.787 9.30482 139.787 10.3387C139.787 16.0441 139.787 16.1207 139.787 24.7746C139.787 28.6037 141.972 30.6715 145.967 30.6715C146.909 30.6715 147.625 30.5566 148.227 30.3269C148.906 30.0971 149.283 29.561 149.283 28.7952C149.283 27.9528 148.642 27.3784 147.7 27.3784Z" fill="#153769"/>
<path d="M133.757 30.6716C134.775 30.6716 135.528 29.8675 135.528 28.7953V5.82038C135.528 4.74821 134.775 3.94409 133.757 3.94409C132.702 3.94409 131.949 4.74821 131.949 5.82038V28.7953C131.986 29.8675 132.74 30.6716 133.757 30.6716Z" fill="#153769"/>
</svg>
