<svg width="37" height="38" viewBox="0 0 37 38" fill="none" xmlns="http://www.w3.org/2000/svg">
<path d="M13.5628 17.7294C13.2347 17.7294 12.92 17.5955 12.688 17.3572C12.456 17.1189 12.3256 16.7957 12.3256 16.4588V12.6588C12.3089 12.4824 12.3284 12.3044 12.3827 12.1362C12.437 11.968 12.525 11.8133 12.6409 11.6821C12.7569 11.5509 12.8983 11.446 13.0561 11.3743C13.2138 11.3025 13.3845 11.2654 13.557 11.2654C13.7296 11.2654 13.9002 11.3025 14.058 11.3743C14.2157 11.446 14.3571 11.5509 14.4731 11.6821C14.5891 11.8133 14.677 11.968 14.7313 12.1362C14.7856 12.3044 14.8051 12.4824 14.7884 12.6588V16.4588C14.7884 16.7937 14.6597 17.1151 14.4302 17.3531C14.2006 17.591 13.8889 17.7263 13.5628 17.7294Z" fill="#707680"/>
<path d="M18.4999 17.7294C18.1718 17.7294 17.8571 17.5955 17.6251 17.3572C17.393 17.1189 17.2627 16.7957 17.2627 16.4588V11.4C17.2924 11.0857 17.4349 10.7941 17.6626 10.5819C17.8902 10.3696 18.1867 10.2521 18.4941 10.2521C18.8015 10.2521 19.098 10.3696 19.3256 10.5819C19.5533 10.7941 19.6958 11.0857 19.7255 11.4V16.4706C19.7225 16.8035 19.5924 17.1219 19.3632 17.3573C19.134 17.5927 18.824 17.7263 18.4999 17.7294Z" fill="#707680"/>
<path d="M23.4373 17.7294C23.1092 17.7294 22.7945 17.5955 22.5625 17.3572C22.3305 17.1189 22.2001 16.7957 22.2001 16.4587V8.87061C22.1835 8.69423 22.2029 8.51623 22.2572 8.34802C22.3115 8.17982 22.3995 8.02515 22.5154 7.89393C22.6314 7.76272 22.7728 7.65787 22.9306 7.58611C23.0883 7.51436 23.259 7.47729 23.4315 7.47729C23.6041 7.47729 23.7747 7.51436 23.9325 7.58611C24.0902 7.65787 24.2316 7.76272 24.3476 7.89393C24.4636 8.02515 24.5515 8.17982 24.6058 8.34802C24.6601 8.51623 24.6796 8.69423 24.6629 8.87061V16.4706C24.6599 16.8035 24.5298 17.1219 24.3006 17.3573C24.0714 17.5927 23.7614 17.7263 23.4373 17.7294Z" fill="#707680"/>
<path d="M28.3628 38H8.63715C7.32772 38 6.07193 37.4658 5.14603 36.5148C4.22012 35.5639 3.69996 34.2742 3.69996 32.9294V9.975C3.69856 9.04572 3.89679 8.12757 4.28052 7.28599C4.66425 6.44442 5.22403 5.70015 5.91996 5.10625L10.175 1.4725C11.2821 0.524952 12.6766 0.00414774 14.1178 0L28.3628 0C29.6722 0 30.928 0.534225 31.8539 1.48515C32.7798 2.43608 33.3 3.72581 33.3 5.07062V32.9294C33.3 34.2742 32.7798 35.5639 31.8539 36.5148C30.928 37.4658 29.6722 38 28.3628 38ZM14.1178 2.52938C13.272 2.54308 12.4561 2.85312 11.8053 3.40812L7.49246 7.05375C7.0752 7.41021 6.73969 7.85685 6.50984 8.36181C6.28 8.86676 6.16149 9.41759 6.16277 9.975V32.9294C6.16581 33.5992 6.42626 34.2408 6.88747 34.7145C7.34868 35.1881 7.97334 35.4556 8.62558 35.4588H28.3628C29.015 35.4556 29.6397 35.1881 30.1009 34.7145C30.5621 34.2408 30.8225 33.5992 30.8256 32.9294V5.07062C30.8225 4.40076 30.5621 3.75921 30.1009 3.28554C29.6397 2.81186 29.015 2.54437 28.3628 2.54125L14.1178 2.52938Z" fill="#707680"/>
<path d="M25.9001 30.4H11.1001C10.9283 30.4171 10.755 30.3971 10.5912 30.3414C10.4274 30.2856 10.2768 30.1953 10.1491 30.0762C10.0213 29.9571 9.91923 29.8118 9.84936 29.6498C9.7795 29.4878 9.74341 29.3125 9.74341 29.1353C9.74341 28.9581 9.7795 28.7829 9.84936 28.6208C9.91923 28.4588 10.0213 28.3136 10.1491 28.1945C10.2768 28.0754 10.4274 27.985 10.5912 27.9293C10.755 27.8735 10.9283 27.8535 11.1001 27.8706H25.9001C26.0718 27.8535 26.2451 27.8735 26.4089 27.9293C26.5727 27.985 26.7233 28.0754 26.851 28.1945C26.9788 28.3136 27.0809 28.4588 27.1508 28.6208C27.2206 28.7829 27.2567 28.9581 27.2567 29.1353C27.2567 29.3125 27.2206 29.4878 27.1508 29.6498C27.0809 29.8118 26.9788 29.9571 26.851 30.0762C26.7233 30.1953 26.5727 30.2856 26.4089 30.3414C26.2451 30.3971 26.0718 30.4171 25.9001 30.4Z" fill="#707680"/>
<path d="M25.8999 24.0707H11.0999C10.7939 24.0402 10.5099 23.8938 10.3033 23.66C10.0966 23.4262 9.98218 23.1217 9.98218 22.806C9.98218 22.4902 10.0966 22.1858 10.3033 21.952C10.5099 21.7182 10.7939 21.5718 11.0999 21.5413H25.8999C26.0716 21.5242 26.245 21.5441 26.4087 21.5999C26.5725 21.6557 26.7231 21.746 26.8509 21.8651C26.9786 21.9842 27.0807 22.1294 27.1506 22.2915C27.2205 22.4535 27.2566 22.6288 27.2566 22.806C27.2566 22.9832 27.2205 23.1584 27.1506 23.3205C27.0807 23.4825 26.9786 23.6277 26.8509 23.7468C26.7231 23.8659 26.5725 23.9563 26.4087 24.012C26.245 24.0678 26.0716 24.0878 25.8999 24.0707Z" fill="#707680"/>
</svg>
