<svg width="37" height="39" viewBox="0 0 37 39" fill="none" xmlns="http://www.w3.org/2000/svg">
<path d="M16.0944 12.3552C15.3846 12.3552 14.8091 12.9307 14.8091 13.6406V20.6348C14.8091 22.6293 16.4314 24.2516 18.4258 24.2516H23.0887C23.7985 24.2516 24.374 23.6761 24.374 22.9662C24.374 22.2564 23.7985 21.6809 23.0887 21.6809H18.4258C17.8489 21.6809 17.3798 21.2118 17.3798 20.6348V13.6406C17.3798 12.93 16.8043 12.3552 16.0944 12.3552Z" fill="#707680"/>
<path d="M31.1892 6.93776C27.7383 3.48762 23.1504 1.58711 18.2703 1.58711C15.6071 1.58711 13.0011 2.16263 10.6147 3.26447L10.9934 2.29623C11.2518 1.63483 10.9252 0.889746 10.2645 0.631353C9.60312 0.372961 8.85803 0.699622 8.59964 1.36029L7.01478 5.41456C6.83787 5.86675 6.85696 6.37693 7.0669 6.81517C7.27684 7.25267 7.66297 7.58741 8.12616 7.73276L12.2795 9.035C12.4073 9.07537 12.5372 9.09446 12.6642 9.09446C13.2111 9.09446 13.7176 8.74284 13.8901 8.19375C14.1022 7.5162 13.7257 6.79535 13.0481 6.5832L10.9978 5.94015C13.2316 4.77078 15.7194 4.15856 18.2696 4.15856C22.4633 4.15856 26.4053 5.79187 29.3709 8.75678C32.3358 11.7224 33.9691 15.6644 33.9691 19.8581C33.9691 24.0519 32.3358 27.9946 29.3709 30.9595C26.4053 33.9244 22.4633 35.5577 18.2696 35.5577C14.0758 35.5577 10.1331 33.9244 7.1682 30.9595C4.20256 27.9938 2.56998 24.0519 2.56998 19.8581C2.56998 17.3638 3.13742 14.9795 4.25614 12.7714C4.57693 12.1386 4.32368 11.3649 3.69091 11.0441C3.05814 10.7234 2.28443 10.9766 1.96364 11.6094C0.660664 14.1801 0 16.9549 0 19.8567C0 24.7368 1.90051 29.3247 5.35138 32.7756C8.80224 36.2265 13.3902 38.127 18.2703 38.127C23.1504 38.127 27.7383 36.2265 31.1892 32.7756C34.6401 29.3247 36.5406 24.7368 36.5406 19.8567C36.5406 14.9766 34.6401 10.3886 31.1892 6.93776Z" fill="#707680"/>
</svg>
