<svg width="35" height="35" viewBox="0 0 35 35" fill="none" xmlns="http://www.w3.org/2000/svg">
<path d="M33.9753 1.02319C33.5057 0.555641 32.9134 0.230493 32.2668 0.0853153C31.6203 -0.0598622 30.9458 -0.0191428 30.3214 0.202768L2.39226 11.7215C1.7482 11.9348 1.18032 12.3313 0.758092 12.8624C0.335865 13.3934 0.0776097 14.036 0.0149272 14.7115C-0.0477553 15.3871 0.0878542 16.0662 0.405162 16.6659C0.722469 17.2656 1.20771 17.7597 1.80151 18.0879L1.92185 18.1426L12.9382 22.7042C13.1549 22.7831 13.3893 22.8003 13.6153 22.7539C13.8412 22.7076 14.0499 22.5995 14.2181 22.4416L19.9833 16.6768C20.1037 16.5712 20.2011 16.442 20.2696 16.2972C20.338 16.1525 20.376 15.9952 20.3812 15.8352C20.3864 15.6751 20.3587 15.5157 20.2999 15.3668C20.241 15.2179 20.1522 15.0826 20.039 14.9694C19.9257 14.8562 19.7905 14.7674 19.6416 14.7085C19.4926 14.6497 19.3332 14.622 19.1732 14.6272C19.0131 14.6324 18.8558 14.6704 18.711 14.7388C18.5663 14.8073 18.4371 14.9047 18.3314 15.025L13.1241 20.2429L2.87361 16.0205C2.68384 15.9134 2.5304 15.752 2.43295 15.5571C2.33549 15.3622 2.29847 15.1427 2.32662 14.9266C2.35068 14.6882 2.446 14.4626 2.60016 14.2792C2.75432 14.0958 2.96016 13.9631 3.19086 13.8983L31.1309 2.39056C31.3354 2.32047 31.5555 2.30894 31.7662 2.35726C31.9769 2.40559 32.1699 2.51184 32.3234 2.66403C32.4697 2.80084 32.5756 2.97521 32.6297 3.1681C32.6837 3.361 32.6837 3.56502 32.6297 3.75792L21.0664 31.871C21.003 32.0895 20.873 32.2828 20.6946 32.424C20.5161 32.5651 20.2981 32.6472 20.0709 32.6586C19.8548 32.6868 19.6352 32.6497 19.4403 32.5523C19.2454 32.4548 19.084 32.3014 18.9769 32.1117L16.1544 25.2967C16.0355 25.0066 15.8061 24.7756 15.5169 24.6546C15.2276 24.5335 14.9021 24.5324 14.6119 24.6513C14.3218 24.7703 14.0908 24.9996 13.9698 25.2888C13.8487 25.5781 13.8475 25.9036 13.9665 26.1937L16.8218 33.0852L16.8765 33.2056C17.1761 33.7568 17.6211 34.2155 18.163 34.5317C18.7049 34.848 19.3231 35.0098 19.9505 34.9995H20.2897C20.9537 34.9465 21.5879 34.701 22.1145 34.2929C22.6411 33.8849 23.0372 33.3321 23.2543 32.7024L34.8176 4.60022C35.0252 3.9848 35.0563 3.32358 34.9074 2.6914C34.7585 2.05923 34.4356 1.48135 33.9753 1.02319Z" fill="#707680"/>
</svg>
