<svg width="38" height="38" viewBox="0 0 38 38" fill="none" xmlns="http://www.w3.org/2000/svg">
<path fill-rule="evenodd" clip-rule="evenodd" d="M19 0C8.51382 0 0 8.51382 0 19C0 29.4868 8.51382 38 19 38C29.4868 38 38 29.4868 38 19C38 8.51382 29.4868 0 19 0ZM19 2.53354C28.0884 2.53354 35.4671 9.91222 35.4671 19C35.4671 28.0884 28.0884 35.4671 19 35.4671C9.91222 35.4671 2.53354 28.0884 2.53354 19C2.53354 9.91222 9.91222 2.53354 19 2.53354ZM27.8738 20.2756C28.2617 20.0488 28.5 19.6323 28.5 19.183C28.5 18.7331 28.2617 18.3172 27.8738 18.0898L15.2067 10.6722C14.8151 10.443 14.3306 10.4406 13.9372 10.6668C13.5432 10.8923 13.3 11.3112 13.3 11.7654V26.6C13.3 27.0542 13.5432 27.4731 13.9372 27.6993C14.3306 27.9248 14.8151 27.9224 15.2067 27.6932L27.8738 20.2756ZM24.7268 19.183L15.8335 24.3905V13.9749L24.7268 19.183Z" fill="#707680"/>
</svg>
