<svg width="14" height="11" viewBox="0 0 14 11" fill="none" xmlns="http://www.w3.org/2000/svg">
<path d="M13.3358 1.85877C12.8369 2.06919 12.3359 2.22804 11.7806 2.28168C12.3359 1.96398 12.7805 1.43586 13.0018 0.8541C12.4465 1.1718 11.8912 1.38222 11.2816 1.4895C10.7263 0.961375 10.004 0.643677 9.22746 0.643677C7.7264 0.643677 6.50517 1.80513 6.50517 3.23065C6.50517 3.44313 6.50517 3.65356 6.56156 3.8124C4.28395 3.70719 2.28616 2.70252 0.952128 1.11816C0.674476 1.4895 0.563849 1.96398 0.563849 2.43846C0.563849 3.33792 1.06275 4.1301 1.78508 4.60459C1.34041 4.55095 0.897899 4.44574 0.563849 4.28689C0.563849 4.28689 0.563849 4.28689 0.563849 4.34053C0.563849 5.60719 1.50743 6.66343 2.72867 6.87592C2.50741 6.92749 2.28616 6.98113 2.00851 6.98113C1.84148 6.98113 1.67446 6.98113 1.50743 6.92749C1.84148 7.98374 2.84146 8.72434 4.0627 8.72434C3.11911 9.41131 1.95211 9.83216 0.674476 9.83216C0.453222 9.83216 0.229799 9.83216 0.00854492 9.78059C1.22978 10.5191 2.67444 10.942 4.17332 10.942C9.22746 10.942 11.9476 6.98113 11.9476 3.54834C11.9476 3.44313 11.9476 3.33792 11.9476 3.23065C12.5029 2.86137 12.9476 2.38689 13.3358 1.85877Z" fill="white"/>
</svg>
